<svg width="23657" height="7808" viewBox="0 0 23657 7808" fill="none" xmlns="http://www.w3.org/2000/svg">
<path d="M7274.65 5162.48C7164.99 5162.48 7057.45 5143.5 6952.01 5105.55C6848.67 5067.59 6754.83 5008.54 6670.48 4928.41C6588.24 4850.38 6522.87 4752.32 6474.36 4634.23C6425.86 4514.03 6401.61 4373.79 6401.61 4213.52C6401.61 4032.17 6429.02 3876.12 6483.85 3745.37C6540.79 3612.52 6615.65 3503.91 6708.44 3419.56C6801.23 3333.1 6904.56 3268.78 7018.43 3226.61C7132.31 3184.43 7246.18 3163.34 7360.06 3163.34C7427.54 3163.34 7491.86 3168.61 7553.01 3179.16C7614.17 3187.59 7671.11 3200.25 7723.83 3217.12C7730.15 3063.17 7737.53 2908.18 7745.97 2752.13C7756.51 2596.08 7768.11 2442.13 7780.76 2290.3L8312.18 2325.09C8295.31 2500.13 8280.55 2688.86 8267.9 2891.31C8255.24 3091.64 8245.75 3296.2 8239.43 3504.97C8235.21 3713.74 8233.1 3917.24 8233.1 4115.47C8233.1 4301.04 8235.21 4478.18 8239.43 4646.88C8245.75 4813.48 8253.14 4965.31 8261.57 5102.38L7714.34 5143.5C7712.23 5103.44 7711.17 5064.42 7711.17 5026.47C7650.02 5066.53 7582.54 5099.22 7508.73 5124.53C7437.03 5149.83 7359 5162.48 7274.65 5162.48ZM6910.88 4185.06C6910.88 4294.71 6931.97 4381.17 6974.15 4444.44C7016.32 4505.59 7067.99 4548.82 7129.15 4574.13C7190.3 4599.43 7249.35 4612.09 7306.28 4612.09C7373.77 4612.09 7441.25 4597.33 7508.73 4567.8C7576.21 4538.28 7639.47 4486.61 7698.52 4412.81C7698.52 4387.5 7698.52 4363.25 7698.52 4340.05C7698.52 4169.24 7700.63 3994.21 7704.85 3814.96C7605.73 3728.5 7498.18 3685.27 7382.2 3685.27C7333.7 3685.27 7282.03 3692.65 7227.2 3707.41C7172.38 3722.17 7120.71 3748.53 7072.21 3786.49C7025.81 3822.34 6986.8 3872.95 6955.17 3938.33C6925.65 4001.59 6910.88 4083.83 6910.88 4185.06Z" fill="#0083FA"/>
<path d="M9438.77 5162.48C9280.61 5162.48 9137.22 5121.36 9008.58 5039.12C8879.94 4958.98 8777.67 4850.38 8701.75 4713.31C8627.94 4574.13 8591.04 4419.13 8591.04 4248.32C8591.04 4088.05 8620.56 3943.6 8679.61 3814.96C8738.65 3684.22 8818.79 3572.45 8920.01 3479.66C9023.34 3386.88 9140.38 3316.23 9271.12 3267.73C9401.87 3217.12 9538.94 3191.81 9682.34 3191.81C9802.54 3191.81 9920.63 3208.68 10036.6 3242.42C10045.1 3198.14 10052.4 3153.85 10058.8 3109.57L10599.7 3201.3C10584.9 3241.37 10570.1 3301.47 10555.4 3381.6C10540.6 3461.74 10528 3551.36 10517.4 3650.47C10509 3749.59 10501.6 3848.7 10495.3 3947.82C10489 4046.93 10485.8 4136.55 10485.8 4216.69C10485.8 4282.06 10490 4346.38 10498.4 4409.64C10509 4470.8 10530.1 4521.41 10561.7 4561.48C10593.3 4599.43 10641.8 4618.41 10707.2 4618.41H10751.5L10672.4 5168.81C10533.2 5168.81 10418.3 5144.56 10327.6 5096.06C10237 5049.66 10164.2 4986.4 10109.4 4906.26C10018.7 5007.49 9915.36 5074.97 9799.38 5108.71C9683.4 5144.56 9563.19 5162.48 9438.77 5162.48ZM9109.8 4311.58C9120.35 4412.81 9161.47 4493.99 9233.17 4555.15C9306.97 4614.2 9399.76 4643.72 9511.53 4643.72C9619.08 4643.72 9708.7 4615.25 9780.4 4558.31C9852.1 4499.27 9911.15 4419.13 9957.54 4317.91C9955.43 4284.17 9954.38 4249.37 9954.38 4213.52C9954.38 4139.72 9956.48 4063.8 9960.7 3985.77C9964.92 3907.75 9970.19 3830.78 9976.52 3754.86C9887.95 3721.12 9795.16 3704.25 9698.16 3704.25C9584.28 3704.25 9482 3727.45 9391.33 3773.84C9302.76 3818.12 9233.17 3880.33 9182.56 3960.47C9131.94 4040.6 9106.64 4133.39 9106.64 4238.83C9106.64 4251.48 9106.64 4264.14 9106.64 4276.79C9106.64 4289.44 9107.69 4301.04 9109.8 4311.58Z" fill="#0083FA"/>
<path d="M11053.6 5140.34C11047.3 4954.77 11042 4782.9 11037.8 4624.74C11035.7 4466.58 11034.7 4310.53 11034.7 4156.59C11034.7 4002.64 11035.7 3848.7 11037.8 3694.76C11042 3538.71 11048.4 3372.11 11056.8 3194.97H11591.4C11582.9 3289.87 11575.6 3385.82 11569.2 3482.83C11640.9 3392.15 11726.3 3317.28 11825.5 3258.24C11924.6 3197.08 12041.6 3166.51 12176.6 3166.51C12309.4 3166.51 12418 3188.65 12502.4 3232.93C12588.8 3277.22 12656.3 3338.37 12704.8 3416.4C12755.4 3494.42 12791.3 3584.05 12812.4 3685.27C12835.6 3784.38 12850.3 3891.93 12856.7 4007.92C12863 4121.79 12866.1 4236.72 12866.1 4352.71C12866.1 4479.23 12864 4600.49 12859.8 4716.47C12855.6 4832.46 12851.4 4929.46 12847.2 5007.49C12843 5085.51 12839.8 5131.91 12837.7 5146.67H12306.3C12310.5 5060.21 12314.7 4968.47 12318.9 4871.47C12323.1 4772.36 12327.4 4675.35 12331.6 4580.46C12335.8 4483.45 12337.9 4395.94 12337.9 4317.91C12337.9 3868.74 12265.1 3644.15 12119.6 3644.15C11999.4 3644.15 11889.8 3696.87 11790.7 3802.31C11693.7 3905.64 11612.5 4036.39 11547.1 4194.55C11547.1 4215.63 11547.1 4236.72 11547.1 4257.81C11547.1 4359.03 11547.1 4464.47 11547.1 4574.13C11549.2 4681.68 11551.3 4785.01 11553.4 4884.12C11557.6 4981.13 11560.8 5065.48 11562.9 5137.18L11053.6 5140.34Z" fill="#0083FA"/>
<path d="M13700.3 5140.34C13698.2 5022.25 13697.2 4902.05 13697.2 4779.74C13697.2 4655.32 13697.2 4535.12 13697.2 4419.13V3669.45C13608.6 3675.78 13523.2 3685.27 13440.9 3697.92C13360.8 3710.58 13285.9 3726.39 13216.3 3745.37L13149.9 3239.26C13225.8 3222.39 13312.3 3207.63 13409.3 3194.97C13508.4 3182.32 13610.7 3172.83 13716.1 3166.51C13728.8 3050.52 13749.9 2937.7 13779.4 2828.04C13811 2718.39 13855.3 2620.33 13912.3 2533.87C13969.2 2445.3 14044.1 2374.65 14136.8 2321.93C14229.6 2269.21 14344.6 2242.85 14481.6 2242.85C14656.7 2242.85 14825.4 2278.7 14987.7 2350.4L14880.2 2853.35C14741 2790.08 14626.1 2758.45 14535.4 2758.45C14438.4 2758.45 14370.9 2793.25 14333 2862.84C14295 2930.32 14270.7 3026.27 14260.2 3150.69C14374.1 3152.8 14481.6 3158.07 14582.9 3166.51C14686.2 3172.83 14775.8 3181.27 14851.7 3191.81L14801.1 3688.43C14727.3 3675.78 14640.8 3666.29 14541.7 3659.96C14444.7 3651.53 14342.4 3647.31 14234.9 3647.31C14230.7 3754.86 14227.5 3860.3 14225.4 3963.63C14223.3 4064.85 14222.2 4166.08 14222.2 4267.3C14222.2 4402.26 14223.3 4541.44 14225.4 4684.84C14229.6 4826.13 14233.8 4977.96 14238.1 5140.34H13700.3Z" fill="#0083FA"/>
<path d="M16064.9 5165.65C15862.4 5165.65 15684.2 5125.58 15530.3 5045.45C15378.5 4967.42 15259.3 4857.76 15172.9 4716.47C15088.5 4575.18 15046.3 4411.75 15046.3 4226.18C15046.3 4114.41 15065.3 3997.37 15103.3 3875.06C15141.2 3750.64 15202.4 3634.66 15286.7 3527.11C15371.1 3419.56 15481.8 3332.05 15618.9 3264.56C15758.1 3197.08 15926.8 3163.34 16125 3163.34C16268.4 3163.34 16388.6 3179.16 16485.6 3210.79C16584.7 3242.42 16664.8 3283.54 16726 3334.16C16789.3 3384.77 16836.7 3438.54 16868.3 3495.48C16902.1 3552.42 16924.2 3607.24 16934.8 3659.96C16947.4 3710.58 16953.7 3752.75 16953.7 3786.49C16953.7 3991.05 16867.3 4149.21 16694.4 4260.97C16523.5 4370.63 16281 4425.46 15966.8 4425.46C15895.1 4425.46 15826.6 4422.3 15761.2 4415.97C15698 4409.64 15638.9 4402.26 15584.1 4393.83C15624.1 4499.27 15690.6 4577.29 15783.4 4627.9C15876.1 4676.41 15972.1 4700.66 16071.2 4700.66C16214.6 4700.66 16341.1 4675.35 16450.8 4624.74C16560.5 4572.02 16663.8 4491.89 16760.8 4384.34L17042.3 4789.23C16974.8 4844.06 16898.9 4900.99 16814.6 4960.04C16732.3 5019.09 16631.1 5067.59 16510.9 5105.55C16390.7 5145.61 16242 5165.65 16064.9 5165.65ZM16134.5 3637.82C16010.1 3637.82 15900.4 3669.45 15805.5 3732.72C15710.6 3795.98 15641 3879.28 15596.7 3982.61C15649.5 3991.05 15701.1 3998.43 15751.7 4004.75C15804.4 4008.97 15856.1 4011.08 15906.7 4011.08C15953.1 4011.08 16005.8 4006.86 16064.9 3998.43C16126 3989.99 16185.1 3977.34 16242 3960.47C16301.1 3943.6 16349.6 3922.51 16387.5 3897.2C16425.5 3869.79 16444.5 3838.16 16444.5 3802.31C16444.5 3785.44 16436 3764.35 16419.2 3739.04C16402.3 3713.74 16371.7 3690.54 16327.4 3669.45C16283.1 3648.37 16218.8 3637.82 16134.5 3637.82Z" fill="#0083FA"/>
<path d="M18510.3 3035.86H18807.9V4946.76H19768.5V5176.19H18510.3V3035.86Z" fill="#7B7C7D"/>
<path d="M20282.4 3035.86H20579.9V4946.76H21540.6V5176.19H20282.4V3035.86Z" fill="#7B7C7D"/>
<path d="M22858.2 5208.75C22679.6 5208.75 22534.1 5190.5 22421.6 5153.99C22309.1 5117.48 22222.2 5066.16 22161 5000.05C22100.9 4932.95 22058.9 4853.51 22035.2 4761.74C22012.5 4669.97 22001.2 4568.33 22001.2 4456.82V3784.83C22001.2 3671.35 22012 3567.24 22033.8 3472.51C22056.4 3376.79 22097.9 3293.9 22158.1 3223.84C22219.3 3153.78 22305.6 3099.5 22417.1 3061.02C22529.6 3022.54 22675.7 3003.29 22855.2 3003.29C23071.4 3003.29 23237.1 3029.44 23352.6 3081.74C23468 3133.05 23547.5 3209.04 23590.9 3309.69C23634.3 3410.34 23656 3534.18 23656 3681.21V3700.46L23373.3 3725.62V3685.65C23373.3 3556.39 23356.5 3460.17 23323 3397.02C23290.4 3333.87 23236.1 3292.42 23160.2 3272.68C23084.2 3252.95 22982.5 3243.08 22855.2 3243.08C22729.9 3243.08 22626.3 3257.39 22544.4 3286.01C22462.5 3313.64 22401.3 3362.98 22360.9 3434.02C22320.4 3504.09 22300.2 3602.76 22300.2 3730.06V4502.71C22300.2 4629.02 22320.9 4725.72 22362.4 4792.82C22403.8 4859.93 22466 4906.3 22548.9 4931.96C22632.7 4956.63 22737.8 4968.97 22864.1 4968.97C22988.5 4968.97 23087.6 4960.58 23161.6 4943.8C23236.6 4927.03 23290.4 4889.04 23323 4829.83C23356.5 4769.64 23373.3 4675.89 23373.3 4548.6V4513.07H23656V4527.87C23656 4635.43 23645.7 4731.64 23624.9 4816.51C23605.2 4900.38 23567.7 4971.43 23512.4 5029.65C23457.2 5087.87 23376.8 5132.28 23271.2 5162.87C23166.6 5193.46 23028.9 5208.75 22858.2 5208.75Z" fill="#7B7C7D"/>
<path d="M3794.04 5033.57L5233.41 5481.09L5198.88 4174.74C5198.2 4148.95 5169.49 4133.91 5147.9 4148.03L3794.04 5033.57Z" fill="#0083FA"/>
<path d="M1624.68 6573.3L2841.04 6984.92C3127.66 7081.92 3444.19 7020.52 3673.76 6823.39L4269.97 6311.44L5236.52 5481.48L2989.68 4739.81L1069.87 3946.31L1042.69 5748.89C1037.08 6120.92 1272.24 6454.04 1624.68 6573.3Z" fill="#1A6CB6"/>
<path d="M1045.05 5808.53L1058.71 4006.92C1061.04 3698.78 1228.69 3415.63 1497.75 3265.41L3039.49 2404.61L5181.24 1185.46L5163.8 3344.76L1045.05 5808.53Z" fill="#0083FA"/>
<path opacity="0.9" d="M3039.56 2404.62L5181.31 1185.47L3357.83 5.32469C3337.28 -7.97256 3309.93 4.97802 3307.19 29.2978L3039.56 2404.62Z" fill="#005BAE"/>
</svg>
